<svg
          class="MuiSvgIcon-root MuiSvgIcon-fontSizeSmall css-2dsdut"
          focusable="false"
          aria-hidden="true"
          viewBox="0 0 20 20"
        >
          <path
            fill-rule="evenodd"
            clip-rule="evenodd"
            d="M 16.857 0 C 17.488 0 18 0.497 18 1.111 L 18 18.889 C 18 19.503 17.488 20 16.857 20 C 16.226 20 15.714 19.503 15.714 18.889 L 15.714 1.111 C 15.714 0.497 16.226 0 16.857 0 Z M 10 6.667 C 10.631 6.667 11.143 7.164 11.143 7.778 L 11.143 18.889 C 11.143 19.503 10.631 20 10 20 C 9.369 20 8.857 19.503 8.857 18.889 L 8.857 7.778 C 8.857 7.164 9.369 6.667 10 6.667 Z M 3.143 13.333 C 3.774 13.333 4.286 13.831 4.286 14.444 L 4.286 18.889 C 4.286 19.503 3.774 20 3.143 20 C 2.512 20 2 19.503 2 18.889 L 2 14.444 C 2 13.831 2.512 13.333 3.143 13.333 Z"
          ></path>
        </svg>