<svg
          class="MuiSvgIcon-root MuiSvgIcon-fontSizeSmall css-2dsdut"
          focusable="false"
          aria-hidden="true"
          viewBox="0 0 20 20"
        >
          <path
            fill-rule="evenodd"
            clip-rule="evenodd"
            d="M 13.434 0.063 C 13.602 0.007 13.744 -0.008 13.966 0.004 L 13.699 0.004 L 13.966 0.004 C 13.99 0.005 14.013 0.006 14.034 0.007 C 14.144 0.012 14.236 0.016 14.336 0.048 C 14.458 0.08700000000000001 14.587 0.167 14.781 0.329 C 15.133 0.622 15.716 1.204 16.874 2.36 C 16.984 2.47 17.1 2.585 17.221 2.706 C 18.307 3.788 18.936 4.42 19.307 4.806 C 19.676 5.191 19.793 5.337 19.849 5.449 C 20.078 5.912 20.044 6.481 19.763 6.924 L 19.715 6.894 L 19.763 6.924 C 19.729 6.977 19.629 7.092 19.501 7.231 C 19.371 7.371 19.208 7.539 19.043 7.702 C 18.691 8.05 18.47 8.253 18.273 8.371 C 18.071 8.492 17.895 8.522 17.639 8.536 C 17.513 8.542 17.421 8.542 17.337 8.532 C 17.253 8.521 17.179 8.5 17.091 8.466 L 17.111 8.413 L 17.091 8.466 C 17.039 8.447 17.002 8.432 16.973 8.423 C 16.943 8.413 16.927 8.41 16.918 8.409 C 16.916 8.409 16.914 8.409 16.913 8.409 L 16.912 8.409 C 16.913 8.409 11.646 2.9210000000000003 11.646 2.9210000000000003 C 11.486 2.799 11.426 2.276 11.528 1.996 C 11.552 1.931 11.64 1.678 11.677 1.63 C 11.871 1.3780000000000001 11.981 1.244 12.185 1.062 C 12.882 0.442 13.414 0.048 13.434 0.063 Z M 8.043 12.639 C 7.734 12.955 7.541 13.165 7.407 13.355 C 7.271 13.547 7.196 13.717 7.116 13.954 C 7.059 14.123 7.034 14.358 7.037 14.592 C 7.041 14.826 7.073 15.066 7.134 15.246 C 7.359 15.901 7.859 16.383 8.532 16.594 C 8.691 16.644 8.903 16.67 9.115 16.673 C 9.327 16.676 9.544 16.657 9.714 16.612 C 9.96 16.549 10.128 16.484 10.349 16.317 C 10.567 16.154 10.836 15.891 11.288 15.433 L 12.035 14.674 L 12.036 16.627 L 12.037 18.661 L 7.524 18.661 L 3.011 18.661 L 3.011 15.392 L 3.011 12.122 L 5.819 12.122 L 8.549 12.122 L 8.043 12.639 Z M 8.254 10.547 L 8.207 10.516 L 8.254 10.547 C 8.644 9.964 9.364 9.734 10.033 9.984 C 10.136 10.022 10.278 10.103 10.347 10.161 L 10.435 10.236 L 10.188 10.487 L 9.914 10.764 L 8.993 10.764 C 8.733 10.764 8.497 10.761 8.328 10.754 C 8.244 10.751 8.178 10.747 8.132 10.744 C 8.136 10.737 8.14 10.729 8.144 10.721 C 8.173 10.674 8.211 10.612 8.254 10.547 Z M 16.303 3.694 C 17.222 4.614 17.812 5.209 18.173 5.584 C 18.353 5.772 18.475 5.904 18.552 5.993 C 18.591 6.037 18.616 6.071 18.633 6.094 C 18.639 6.104 18.644 6.111 18.647 6.116 C 18.646 6.117 18.645 6.12 18.643 6.123 C 18.638 6.135 18.629 6.15 18.616 6.169 C 18.59 6.207 18.552 6.255 18.505 6.311 C 18.411 6.421 18.284 6.557 18.151 6.689 C 18.019 6.821 17.884 6.948 17.773 7.042 C 17.717 7.089 17.669 7.127 17.631 7.152 C 17.611 7.165 17.596 7.174 17.584 7.18 C 17.581 7.182 17.578 7.183 17.576 7.184 C 17.572 7.182 17.566 7.179 17.559 7.175 C 17.542 7.164 17.517 7.146 17.483 7.118 C 17.416 7.063 17.318 6.974 17.178 6.841 C 16.899 6.575 16.457 6.136 15.768 5.442 C 14.704 4.372 13.961 3.621 13.484 3.134 C 13.246 2.8890000000000002 13.074 2.7119999999999997 12.962 2.592 C 12.906 2.532 12.865 2.488 12.838000000000001 2.458 C 12.828 2.446 12.819 2.436 12.814 2.4290000000000003 C 12.817 2.418 12.823 2.402 12.836 2.38 C 12.856 2.346 12.887 2.302 12.933 2.247 C 13.023 2.138 13.164 1.9889999999999999 13.369 1.7879999999999998 C 13.535 1.624 13.656 1.512 13.743 1.44 C 13.786999999999999 1.404 13.821 1.38 13.846 1.365 C 13.859 1.357 13.869 1.3519999999999999 13.876 1.35 C 13.878 1.349 13.879 1.349 13.881 1.3479999999999999 C 13.886 1.351 13.894 1.3559999999999999 13.905 1.3639999999999999 C 13.929 1.381 13.963 1.408 14.008 1.448 C 14.099 1.5270000000000001 14.233 1.6520000000000001 14.423 1.834 C 14.801 2.198 15.397 2.7889999999999997 16.303 3.694 Z M 9.498 15.246 C 9.42 15.286 9.299 15.31 9.171 15.314 C 9.044 15.318 8.92 15.302 8.838000000000001 15.267 C 8.682 15.201 8.528 15.041 8.441 14.847 C 8.356 14.658 8.371 14.425 8.491 14.185 L 8.44 14.159 L 8.491 14.185 C 8.495 14.177 8.507 14.159 8.531 14.129 C 8.554 14.099 8.586 14.062 8.626 14.016 C 8.707 13.925 8.822 13.801 8.971 13.644 C 9.268 13.331 9.701 12.889 10.269 12.32 C 10.314 12.275 10.358 12.231 10.4 12.188 C 11.231 11.354 11.649000000000001 10.933 11.853 10.682 C 11.959 10.551 12.013 10.458 12.031 10.372 C 12.048 10.295 12.035 10.227 12.021 10.154 C 12.019 10.146 12.018 10.138 12.016 10.13 C 12.006 10.073 11.97 9.999 11.924 9.921 C 11.876 9.842 11.814 9.751 11.744 9.661 C 11.605 9.479 11.433 9.29 11.288 9.172 C 10.403 8.454 9.173 8.325 8.18 8.847 C 7.886 9.002 7.664 9.159 7.456 9.381 C 7.249 9.600999999999999 7.06 9.885 6.828 10.291 L 6.558 10.764 L 6.089 10.755 L 5.62 10.746 L 5.527 10.556000000000001 C 5.408 10.315 5.306 9.972 5.239 9.625 C 5.174 9.277 5.145 8.929 5.17 8.677 C 5.336 7.011 6.274 5.753 7.793 5.157 C 7.846 5.136 8.083 5.069 8.427 4.976 C 8.768 4.884 9.211 4.768 9.672 4.651 C 10.594 4.417 11.577 4.165 11.856 4.091 C 11.994 4.055 12.123 4.021 12.219 3.997 L 12.334 3.967 L 12.354 3.9619999999999997 C 12.359 3.966 12.364 3.971 12.371 3.977 C 12.396 4.001 12.432 4.036 12.478 4.081 C 12.571 4.171 12.704 4.302 12.868 4.464 C 13.194 4.787 13.642 5.234 14.132 5.727 C 14.996 6.595 15.439 7.042 15.661 7.282 C 15.773 7.404 15.823 7.469 15.843 7.506 C 15.849 7.518 15.851 7.524 15.852 7.527 C 15.851 7.527 15.85 7.529 15.848 7.532 L 14.543 9.546 L 13.297 11.466 L 11.466 13.321 C 10.921 13.874 10.448 14.346 10.099 14.686 C 9.926 14.856 9.783 14.992 9.679 15.089 C 9.627 15.137 9.584 15.175 9.553 15.202 C 9.537 15.216 9.524000000000001 15.227 9.514 15.234 C 9.512 15.236 9.51 15.237 9.509 15.238 C 9.506 15.24 9.504 15.242 9.502 15.243 C 9.499 15.245 9.498 15.246 9.498 15.246 Z M 16.912 8.409 L 11.503 2.782 L 16.912 8.409 Z M 16.912 8.409 L 16.912 8.41 C 16.909 8.412 16.904 8.417 16.892 8.433 L 16.891 8.434 L 16.889 8.437 L 16.882 8.447 L 16.859 8.482 L 16.778 8.604 C 16.711 8.707 16.617 8.852 16.503 9.027 C 16.274 9.377 15.966 9.852 15.633 10.366 C 14.448 12.194 14.411 12.247 13.898 12.79 L 13.395 13.323 L 13.395 16.006 L 13.395 18.657 L 13.959 18.668 C 14.235 18.674 14.396 18.679 14.501 18.692 C 14.553 18.699 14.594 18.708 14.629 18.721 C 14.664 18.735 14.692 18.752 14.719 18.772 L 14.685 18.817 L 14.719 18.772 C 14.824 18.851 14.899000000000001 18.926 14.946 19.018 C 14.993 19.11 15.009 19.212 15.009 19.34 C 15.009 19.468 14.993 19.571 14.946 19.662 C 14.899000000000001 19.754 14.824 19.83 14.719 19.909 L 14.611 19.989 L 14.596 20 L 14.578 20 L 7.504 20 L 0.43200000000000005 20 L 0.41300000000000003 20 L 0.398 19.989 L 0.29100000000000004 19.909 C 0.185 19.83 0.111 19.754 0.064 19.662 C 0.016 19.571 0 19.468 0 19.34 C 0 19.212 0.016 19.11 0.064 19.018 C 0.111 18.926 0.185 18.851 0.29100000000000004 18.772 C 0.318 18.752 0.345 18.734 0.381 18.721 C 0.41600000000000004 18.707 0.458 18.699 0.512 18.692 C 0.618 18.679 0.7839999999999999 18.674 1.069 18.668 L 1.653 18.657 L 1.653 14.987 L 1.653 11.261 L 1.653 11.243 L 1.6629999999999998 11.229 L 1.75 11.097 C 1.779 11.054 1.824 11.007 1.874 10.966 C 1.924 10.924 1.9809999999999999 10.884 2.033 10.858 C 2.075 10.836 2.113 10.819 2.161 10.805 C 2.209 10.791 2.265 10.782 2.343 10.777 C 2.498 10.765 2.751 10.764 3.227 10.764 L 4.144 10.764 L 4.058 10.5 L 4.112 10.482 L 4.058 10.5 C 3.5460000000000003 8.927 3.862 7.069 4.869 5.727 C 5.358 5.077 6.094 4.459 6.7989999999999995 4.107 C 7.259 3.878 7.5969999999999995 3.777 9.609 3.265 L 11.503 2.782 L 16.912 8.409 Z"
            stroke-width="0.1"
          ></path>
        </svg>