<svg width="63" height="32" viewBox="0 0 62 32" fill="none" xmlns="http://www.w3.org/2000/svg" class="material-icons MuiIcon-root" aria-hidden="true" style="height: 32px; width: 62px;"><g id="ALCX-ETH"><g id="token / ETH"><circle id="bg" cx="46.2209" cy="16" r="15.35" fill="white" stroke="url(#paint0_linear)" stroke-width="1.3"></circle><g id="shape"><path id="Union" fill-rule="evenodd" clip-rule="evenodd" d="M46.2189 21.967V27.995L38.7209 17.616L46.2189 21.967ZM46.219 27.995V21.968L53.721 17.616L46.219 27.995Z" fill="#708B96"></path><path id="Union_2" fill-rule="evenodd" clip-rule="evenodd" d="M38.7209 16.22L46.2189 4V12.87L38.7209 16.22ZM38.7209 16.22L46.2189 20.573V12.872L38.7209 16.22ZM46.219 12.87V4L53.716 16.22L46.219 12.87ZM53.716 16.22L46.219 20.573V12.872L53.716 16.22Z" fill="#333333"></path></g></g><g id="Alchemix"><circle id="Ellipse 48" cx="16.2209" cy="16" r="15.5" fill="#252736" stroke="#F6C09A"></circle><path id="Rectangle 4" d="M5.39592 11.9702C5.29028 11.89 5.29051 11.7311 5.39639 11.6512L16.2915 3.43277C16.3642 3.37793 16.4648 3.37912 16.5362 3.43567L26.9125 11.6563C27.0125 11.7355 27.0138 11.8868 26.9152 11.9677L16.6966 20.3542C16.6251 20.413 16.5226 20.4149 16.4488 20.359L5.39592 11.9702Z" fill="#252736" stroke="#F6C09A" stroke-linejoin="round"></path><g id="Rectangle 5"><path d="M27.0264 11.9974C27.0264 11.8281 26.8292 11.7354 26.6988 11.8434L16.2185 20.5278C16.1726 20.5659 16.146 20.6225 16.1461 20.6821L16.1558 27.8599C16.1561 28.0264 16.3477 28.1197 16.4789 28.0172L26.9496 19.8383C26.9981 19.8004 27.0264 19.7423 27.0264 19.6807V11.9974Z" fill="#252736"></path><path d="M27.0264 11.9974C27.0264 11.8281 26.8292 11.7354 26.6988 11.8434L16.2185 20.5278C16.1726 20.5659 16.146 20.6225 16.1461 20.6821L16.1558 27.8599C16.1561 28.0264 16.3477 28.1197 16.4789 28.0172L26.9496 19.8383C26.9981 19.8004 27.0264 19.7423 27.0264 19.6807V11.9974Z" fill="#252736"></path><path d="M27.0264 11.9974C27.0264 11.8281 26.8292 11.7354 26.6988 11.8434L16.2185 20.5278C16.1726 20.5659 16.146 20.6225 16.1461 20.6821L16.1558 27.8599C16.1561 28.0264 16.3477 28.1197 16.4789 28.0172L26.9496 19.8383C26.9981 19.8004 27.0264 19.7423 27.0264 19.6807V11.9974Z" fill="#252736"></path><path d="M27.0264 11.9974C27.0264 11.8281 26.8292 11.7354 26.6988 11.8434L16.2185 20.5278C16.1726 20.5659 16.146 20.6225 16.1461 20.6821L16.1558 27.8599C16.1561 28.0264 16.3477 28.1197 16.4789 28.0172L26.9496 19.8383C26.9981 19.8004 27.0264 19.7423 27.0264 19.6807V11.9974Z" fill="#252736"></path><path d="M26.9496 19.8383L16.4789 28.0172C16.3477 28.1197 16.1561 28.0264 16.1558 27.8599L16.1461 20.6821C16.146 20.6225 16.1726 20.5659 16.2185 20.5278L26.6988 11.8434C26.8292 11.7354 27.0264 11.8281 27.0264 11.9974V19.6807C27.0264 19.7423 26.9981 19.8004 26.9496 19.8383Z" stroke="#F6C09A"></path></g><path id="Polygon 2" d="M16.2068 5.7885C16.2847 5.66062 16.4704 5.66062 16.5484 5.7885L27.4704 23.7083C27.5516 23.8416 27.4557 24.0124 27.2996 24.0124H5.45559C5.29951 24.0124 5.20358 23.8416 5.28481 23.7083L16.2068 5.7885Z" fill="#252736" stroke="#F6C09A" stroke-linejoin="round"></path><g id="Rectangle 6"><path d="M5.27385 11.9927C5.27385 11.8242 5.46945 11.7312 5.60012 11.8376L16.2742 20.5277C16.321 20.5658 16.3481 20.623 16.3479 20.6833L16.331 27.8643C16.3306 28.0299 16.1406 28.1233 16.0092 28.0224L5.35204 19.8383C5.30275 19.8005 5.27385 19.7418 5.27385 19.6797V11.9927Z" fill="#252736"></path><path d="M5.27385 11.9927C5.27385 11.8242 5.46945 11.7312 5.60012 11.8376L16.2742 20.5277C16.321 20.5658 16.3481 20.623 16.3479 20.6833L16.331 27.8643C16.3306 28.0299 16.1406 28.1233 16.0092 28.0224L5.35204 19.8383C5.30275 19.8005 5.27385 19.7418 5.27385 19.6797V11.9927Z" fill="#252736"></path><path d="M5.27385 11.9927C5.27385 11.8242 5.46945 11.7312 5.60012 11.8376L16.2742 20.5277C16.321 20.5658 16.3481 20.623 16.3479 20.6833L16.331 27.8643C16.3306 28.0299 16.1406 28.1233 16.0092 28.0224L5.35204 19.8383C5.30275 19.8005 5.27385 19.7418 5.27385 19.6797V11.9927Z" fill="#252736"></path><path d="M5.27385 11.9927C5.27385 11.8242 5.46945 11.7312 5.60012 11.8376L16.2742 20.5277C16.321 20.5658 16.3481 20.623 16.3479 20.6833L16.331 27.8643C16.3306 28.0299 16.1406 28.1233 16.0092 28.0224L5.35204 19.8383C5.30275 19.8005 5.27385 19.7418 5.27385 19.6797V11.9927Z" fill="#252736"></path><path d="M5.35204 19.8383L16.0092 28.0224C16.1406 28.1233 16.3306 28.0299 16.331 27.8643L16.3479 20.6833C16.3481 20.623 16.321 20.5658 16.2742 20.5277L5.60012 11.8376C5.46945 11.7312 5.27385 11.8242 5.27385 11.9927V19.6797C5.27385 19.7418 5.30275 19.8005 5.35204 19.8383Z" stroke="#F6C09A"></path></g><path id="Line 3" d="M16.3777 3.44391V0.209175" stroke="#F6C09A"></path><line id="Line 4" x1="16.3291" y1="27.6184" x2="16.3291" y2="31.8899" stroke="#F6C09A"></line></g></g><defs><linearGradient id="paint0_linear" x1="46.2209" y1="32" x2="46.2209" y2="-2.23037e-7" gradientUnits="userSpaceOnUse"><stop stop-opacity="0.58"></stop><stop offset="1" stop-color="#708B96" stop-opacity="0.92"></stop></linearGradient></defs></svg>