<svg
class="MuiSvgIcon-root MuiSvgIcon-fontSizeSmall css-2dsdut"
focusable="false"
aria-hidden="true"
viewBox="0 0 20 20"
>
<path
fill-rule="evenodd"
clip-rule="evenodd"
d="M 10 2.223 C 9.386 2.223 8.889 2.719 8.889 3.333 C 8.889 3.947 9.386 4.444 10 4.444 C 10.614 4.444 11.111 3.947 11.111 3.333 C 11.111 2.719 10.614 2.223 10 2.223 Z M 6.667 3.333 C 6.667 1.493 8.159 0 10 0 C 11.841 0 13.334 1.493 13.334 3.333 C 13.334 5.174 11.841 6.667 10 6.667 C 8.159 6.667 6.667 5.174 6.667 3.333 Z M 1.111 10 C 1.111 9.386 1.609 8.889 2.222 8.889 L 17.778 8.889 C 18.391 8.889 18.889 9.386 18.889 10 C 18.889 10.614 18.391 11.111 17.778 11.111 L 2.222 11.111 C 1.609 11.111 1.111 10.614 1.111 10 Z M 10 15.556 C 9.386 15.556 8.889 16.053 8.889 16.667 C 8.889 17.28 9.386 17.778 10 17.778 C 10.614 17.778 11.111 17.28 11.111 16.667 C 11.111 16.053 10.614 15.556 10 15.556 Z M 6.667 16.667 C 6.667 14.826 8.159 13.333 10 13.333 C 11.841 13.333 13.334 14.826 13.334 16.667 C 13.334 18.508 11.841 20 10 20 C 8.159 20 6.667 18.508 6.667 16.667 Z"
></path>
</svg>