<svg
          class="MuiSvgIcon-root MuiSvgIcon-fontSizeSmall css-2dsdut"
          focusable="false"
          aria-hidden="true"
          viewBox="0 0 20 20"
        >
          <path
            fill-rule="evenodd"
            clip-rule="evenodd"
            d="M 7.35 3.986 C 4.029 3.986 1.336 6.679 1.336 10 C 1.336 13.321 4.029 16.013 7.35 16.013 C 10.671 16.013 13.363 13.321 13.363 10 C 13.363 6.679 10.671 3.986 7.35 3.986 Z M 0 10 C 0 5.941 3.291 2.65 7.35 2.65 C 11.409 2.65 14.7 5.941 14.7 10 C 14.7 14.059 11.409 17.35 7.35 17.35 C 3.291 17.35 0 14.059 0 10 Z"
          ></path>
          <path
            fill-rule="evenodd"
            clip-rule="evenodd"
            d="M 12.65 3.986 C 9.329 3.986 6.637 6.679 6.637 10 C 6.637 13.321 9.329 16.013 12.65 16.013 C 15.971 16.013 18.664 13.321 18.664 10 C 18.664 6.679 15.971 3.986 12.65 3.986 Z M 5.3 10 C 5.3 5.941 8.591 2.65 12.65 2.65 C 16.709 2.65 20 5.941 20 10 C 20 14.059 16.709 17.35 12.65 17.35 C 8.591 17.35 5.3 14.059 5.3 10 Z"
          ></path>
          <path
            fill-rule="evenodd"
            clip-rule="evenodd"
            d="M 7.35 3.986 C 4.029 3.986 1.336 6.679 1.336 10 C 1.336 13.321 4.029 16.013 7.35 16.013 C 10.671 16.013 13.363 13.321 13.363 10 C 13.363 6.679 10.671 3.986 7.35 3.986 Z M 0 10 C 0 5.941 3.291 2.65 7.35 2.65 C 11.409 2.65 14.7 5.941 14.7 10 C 14.7 14.059 11.409 17.35 7.35 17.35 C 3.291 17.35 0 14.059 0 10 Z"
            stroke-width="0.2"
            stroke-linecap="round"
            stroke-linejoin="round"
          ></path>
          <path
            fill-rule="evenodd"
            clip-rule="evenodd"
            d="M 12.65 3.986 C 9.329 3.986 6.637 6.679 6.637 10 C 6.637 13.321 9.329 16.013 12.65 16.013 C 15.971 16.013 18.664 13.321 18.664 10 C 18.664 6.679 15.971 3.986 12.65 3.986 Z M 5.3 10 C 5.3 5.941 8.591 2.65 12.65 2.65 C 16.709 2.65 20 5.941 20 10 C 20 14.059 16.709 17.35 12.65 17.35 C 8.591 17.35 5.3 14.059 5.3 10 Z"
            stroke-width="0.2"
            stroke-linecap="round"
            stroke-linejoin="round"
          ></path>
        </svg>