<svg
    class="MuiSvgIcon-root MuiSvgIcon-colorPrimary MuiSvgIcon-fontSizeSmall css-1x7c7it"
    focusable="false"
    aria-hidden="true"
    viewBox="0 0 20 20"
>
    <path d="M13.875 13.078c-4.227 0-6.93-2.648-6.93-6.883 0-.875.211-2.125.492-2.773a1 1 0 0 0 .086-.367.443.443 0 0 0-.46-.446c-.086 0-.274.024-.446.086-2.89 1.157-4.828 4.266-4.828 7.54 0 4.593 3.5 7.874 8.078 7.874 3.367 0 6.281-2.039 7.25-4.586.07-.18.086-.367.086-.437a.482.482 0 0 0-.46-.484c-.102 0-.188.023-.337.07a8.74 8.74 0 0 1-2.531.406Z"></path>
</svg>